<?xml version="1.0" standalone="no"?>
<!DOCTYPE svg PUBLIC "-//W3C//DTD SVG 20010904//EN"
 "http://www.w3.org/TR/2001/REC-SVG-20010904/DTD/svg10.dtd">
<svg version="1.0" xmlns="http://www.w3.org/2000/svg"
 width="900.000000pt" height="900.000000pt" viewBox="0 0 900.000000 900.000000"
 preserveAspectRatio="xMidYMid meet">
<metadata>
Created by potrace 1.11, written by Peter Selinger 2001-2013
</metadata>
<g transform="translate(0.000000,900.000000) scale(0.100000,-0.100000)"
fill="#000000" stroke="none">
<path d="M4098 7190 c-919 -116 -1663 -720 -1953 -1585 -80 -239 -115 -464
-115 -735 0 -377 72 -693 234 -1025 484 -991 1591 -1508 2657 -1240 320 81
647 246 907 457 404 328 704 827 806 1338 79 394 57 809 -60 1172 -117 363
-288 649 -548 917 -357 368 -788 596 -1291 682 -133 23 -514 35 -637 19z m546
-175 c815 -107 1510 -682 1770 -1465 120 -362 143 -761 65 -1128 -183 -851
-847 -1505 -1704 -1677 -320 -64 -650 -54 -974 31 -431 112 -822 358 -1103
694 -266 317 -433 688 -494 1095 -23 160 -24 457 0 610 101 650 461 1196 1012
1537 248 153 553 263 839 302 139 19 447 20 589 1z"/>
<path d="M4117 6925 c-469 -57 -897 -264 -1227 -595 -96 -95 -230 -258 -230
-279 0 -9 177 -320 450 -791 36 -63 88 -152 114 -198 43 -74 50 -81 61 -65 19
28 1106 1914 1112 1929 7 18 -126 17 -280 -1z"/>
<path d="M4444 6787 c-60 -105 -497 -862 -531 -919 -2 -5 505 -8 1127 -8
l1132 0 -28 48 c-278 478 -746 831 -1286 967 -94 24 -270 55 -313 55 -15 0
-39 -34 -101 -143z"/>
<path d="M2557 5898 c-198 -341 -297 -774 -267 -1168 18 -237 79 -493 163
-682 l26 -58 620 0 620 0 -143 248 c-78 136 -322 558 -541 937 -219 380 -408
707 -419 727 -12 21 -24 38 -28 38 -3 0 -17 -19 -31 -42z"/>
<path d="M5001 5728 c7 -13 138 -241 292 -508 269 -465 410 -709 692 -1198 70
-122 133 -221 138 -219 18 6 105 178 156 307 59 152 104 324 127 485 25 182
15 506 -20 674 -30 139 -84 313 -129 414 l-30 67 -619 0 -619 0 12 -22z"/>
<path d="M5416 4734 c-3 -9 -131 -233 -285 -498 -639 -1106 -811 -1404 -817
-1419 -5 -15 3 -17 74 -17 255 0 562 67 807 177 314 141 585 355 803 634 29
37 52 71 52 75 0 16 -606 1058 -617 1061 -6 2 -13 -4 -17 -13z"/>
<path d="M2540 3872 c0 -19 162 -254 233 -339 187 -222 450 -422 713 -544 184
-85 453 -160 632 -175 l67 -5 280 487 c154 268 292 509 308 536 l27 48 -1130
0 c-621 0 -1130 -4 -1130 -8z"/>
</g>
</svg>
