<svg version="1.1" id="Layer_1" xmlns="http://www.w3.org/2000/svg" xmlns:xlink="http://www.w3.org/1999/xlink" x="0px" y="0px"
	 viewBox="0 0 430.46 272.37" style="enable-background:new 0 0 430.46 272.37;" xml:space="preserve">
<style type="text/css">
	.st0{display:none;}
	.st1{
		fill:#FFFFFF;
		animation: animate 3s cubic-bezier(0, 0.23, 1, .1);
	}
	<!-- .st2{fill:none;stroke:#FFFFFF;stroke-width:2;stroke-miterlimit:10;} -->
	.st3{fill:none;stroke:#FFFFFF;stroke-width:3;stroke-miterlimit:10;}

	.st0 {
		fill: none;
		stroke: #FFFFFF;
		stroke-width: 2;
		stroke-miterlimit: 10;
	}




	.st2 {
		stroke: #fff;
		fill: #fff;
		stroke-dasharray: 1800;
		opacity: 10;
		animation: animate 3s cubic-bezier(0, 0.23, 1, .1);
	}

	@keyframes animate {
	0% {
		opacity: 0;
		fill: none;
		stroke-dashoffset: 1800;

	}

	30% {
		opacity: 10;
		fill: none;
		stroke-dashoffset: 1800;
	}

	90% {
		fill: rgba(255, 255, 255, 0);
	}

	100% {
		opacity: 10;
		fill: rgba(255, 255, 255, 1);
		stroke-dashoffset: 0;
	}
	}
	@-webkit-keyframes fadeInDown {
		from {
			opacity: 0;
			-webkit-transform: translate3d(0, -100%, 0);
			transform: translate3d(0, -100%, 0);
		}
		to {
			opacity: 1;
			-webkit-transform: translate3d(0, 0, 0);
			transform: translate3d(0, 0, 0);
		}
	}
	@keyframes fadeInDown {
		from {
			opacity: 0;
			-webkit-transform: translate3d(0, -100%, 0);
			transform: translate3d(0, -100%, 0);
		}
		to {
			opacity: 1;
			-webkit-transform: translate3d(0, 0, 0);
			transform: translate3d(0, 0, 0);
		}
	}
</style>
<rect x="-6.27" y="-33.44" class="st0" width="443" height="341.24"/>
<path class="st1" d="M219.74,14.09c1.08-1.22,2.15-2.45,3.23-3.67c0.44-0.5,0.94-0.88,1.64-1c2.55-0.44,3.1,0.13,2.29,2.53
	c-0.98,2.9-2.04,5.77-3.03,8.66c-0.17,0.49-0.58,1.11-0.15,1.53c0.38,0.38,0.91-0.13,1.35-0.28c0.95-0.32,1.93-0.42,2.91-0.33
	c2.9,0.25,4.17,2.31,3.27,5.08c-0.94,2.91-1.84,5.83-2.61,8.79c-0.57,2.18,0.6,3.09,2.83,2.63c3.25-0.67,4.15-2.91,4.66-5.85
	c0.72-4.2,2.84-7.69,6.61-9.9c3.1-1.82,5.87-0.13,5.98,3.44c0.03,1.08-0.34,1.72-1.35,2.14c-2.17,0.91-4.27,1.97-6.45,2.85
	c-1.09,0.44-1.55,1.11-1.49,2.24c0.06,0.98-0.03,1.99,0.18,2.94c0.45,2.02,2.15,2.78,4.02,1.92c1.12-0.52,2.03-1.26,2.75-2.26
	c0.36-0.5,0.82-1.03,1.48-0.48c0.6,0.51,0.11,0.99-0.21,1.41c-1.89,2.43-4.2,3.97-7.45,3.51c-0.94-0.13-1.93-0.27-2.53-1.02
	c-1-1.25-1.88-1.22-3.15-0.3c-1.91,1.39-4.19,1.52-6.46,1.25c-2.31-0.28-3.36-1.75-2.9-4.04c0.63-3.17,1.75-6.19,2.7-9.27
	c0.25-0.8,0.63-1.63,0.04-2.34c-0.66-0.8-1.62-0.71-2.58-0.53c-1.86,0.35-2.99,1.46-3.58,3.21c-1.3,3.89-2.6,7.77-3.91,11.66
	c-0.42,1.23-2.43,1.96-3.49,1.27c-0.49-0.32-0.34-0.72-0.19-1.16c1.29-3.77,2.55-7.55,3.84-11.32c1.43-4.18,2.89-8.36,4.32-12.54
	c0.11-0.34,0.37-0.7,0.09-1.11c-0.67,0.08-0.91,0.72-1.39,1.05c-0.31,0.21-0.82,0.64-0.94,0.55c-1.3-0.93-2.08,0.33-3.05,0.66
	c-1.76,0.6-3.5,0.85-5.28,0.11c-1.04-0.43-1.67-0.14-2.2,0.91c-1.68,3.36-2.38,7.03-3.55,10.56c-0.86,2.61-1.99,5.06-3.58,7.33
	c-4.11,5.84-13.22,6.13-17.55,3.92c-3.53-1.8-4.26-6.42-1.33-9.11c2.8-2.57,6.19-3.39,9.9-2.28c1.43,0.43,2.1,1.74,1.84,3.24
	c-0.21,1.2-0.73,2.07-2.11,2.07c-0.82,0-1.45-0.22-1.22-1.24c0.22-0.96,0.31-1.98-0.67-2.48c-1-0.52-2.13-0.39-3.16,0.13
	c-1.77,0.9-3.05,3.29-2.72,5.03c0.43,2.28,2.19,3.8,4.53,4.06c5.76,0.65,8.78-2.53,10.79-7.6c1.67-4.21,2.7-8.67,4.87-12.69
	c0.47-0.87,0.9-1.75,1.42-2.58c0.41-0.65,0.42-1.05-0.35-1.41c-2.55-1.16-5.08-2.25-8.01-1.97c-3.16,0.3-5.32,3.31-4.39,6.36
	c0.28,0.93,0.9,1.45,1.89,1.56c0.47,0.05,1.08,0.07,1.13,0.71c0.06,0.68-0.54,0.9-1.05,1.09c-3.04,1.13-6.42-1.73-5.88-4.95
	c0.59-3.51,3.03-5.09,6.12-6.11c3.48-1.15,6.71-0.33,9.8,1.23c1.57,0.79,2.75,0.98,3.95-0.63c0.71-0.95,1.88-1.44,3.1-1.73
	c3.36-0.78,5.62,0.78,5.92,4.13C219.42,13.8,219.58,13.95,219.74,14.09z M240.33,29.34c1.8-0.78,3.14-1.37,4.48-1.93
	c0.6-0.25,0.84-0.68,0.67-1.29c-0.2-0.76-0.12-1.72-0.98-2.12c-0.7-0.33-1.26,0.12-1.69,0.64C241.76,25.9,241.12,27.37,240.33,29.34
	z M212.37,13.35c1.11,0.19,1.93,0.33,2.75,0.47c0.37,0.07,0.61-0.06,0.73-0.41c0.14-0.43,0.48-0.86,0.19-1.32
	c-0.23-0.38-0.64-0.33-1.01-0.22C214.13,12.15,213.37,12.65,212.37,13.35z"/>
<g>
	<path class="st2" d="M370.51,189.26c3.65-9.68,6.88-18.14,10.03-26.63c0.91-2.46,1.77-4.56,5.05-4.6c3.18-0.05,4.47,1.78,5.4,4.26
		c2.6,6.89,5.16,13.8,7.77,20.69c0.65,1.71,0.95,3.61,2.98,5.71c1.45-7.31,2.75-13.97,4.08-20.62c0.8-3.99,1.59-7.99,2.53-11.95
		c0.69-2.89,1.78-5.58-0.72-8.36c-1.33-1.49-0.24-3.26,1.68-3.32c5.79-0.2,11.6-0.36,17.37,0c2.88,0.18,3.33,2.4,1.11,4.19
		c-2.18,1.76-2.8,4.05-3.38,6.5c-3.88,16.15-7.78,32.3-11.6,48.46c-0.64,2.69-1.46,5.33,0.09,8.21c1.14,2.12-0.49,3.16-2.57,3.18
		c-4.86,0.04-9.72,0.07-14.58-0.02c-2.43-0.04-3.63-1.26-2.32-3.64c0.86-1.56,0.74-2.95,0.22-4.49c-2.16-6.37-4.51-12.66-7.94-19.79
		c-2.9,7.58-5.49,14.32-8.06,21.07c-0.16,0.43-0.35,1.03-0.18,1.37c3.33,6.74-1.78,5.46-5.3,5.54c-3.76,0.08-7.52,0.02-11.29-0.03
		c-1.96-0.03-3.76-0.72-2.88-3.04c1.52-4.01,0.46-7.82-0.6-11.53c-3.91-13.73-6.6-27.74-9.92-41.61c-0.9-3.75-1.26-7.62-4.59-10.53
		c-1.99-1.74-0.66-3.74,1.69-3.85c5.63-0.26,11.28-0.27,16.91-0.06c2.42,0.09,3.42,1.78,1.79,3.9c-1.16,1.51-1.6,2.97-1.22,4.78
		c2.24,10.74,4.45,21.48,6.72,32.21C369,186.23,369.59,187.15,370.51,189.26z"/>
	<path class="st2" d="M305.73,142.92c22.54,0.17,35.82,15.39,36.01,37.24c0.19,21.87-15.19,36.77-36.73,36.66
		c-21.23-0.11-35.71-15.4-35.62-37.6C269.47,157.58,284.22,142.84,305.73,142.92z M324.6,179.32c-0.49-3.7-0.67-7.76-2.4-11.57
		c-3.32-7.34-9.28-11.4-16.85-11.27c-7.95,0.13-14.2,4.7-16.99,12.51c-2.93,8.2-2.64,16.32,1.06,24.2
		c3.51,7.46,11.55,11.3,19.49,9.53C319.08,200.46,324.79,192.05,324.6,179.32z"/>
	<path class="st2" d="M19.43,170.67c0,12.89,0,24.44,0,36c0,1.69,0.79,2.99,2.09,4.02c0.91,0.72,1.61,1.59,1.24,2.81
		c-0.39,1.28-1.58,1.44-2.68,1.44c-5.33,0.03-10.66,0.16-15.98-0.05c-2.87-0.12-3.81-1.84-1.46-3.9c1.93-1.69,2.17-3.66,2.17-5.89
		c0-16.92-0.01-33.85,0.01-50.77c0-2.25-0.31-4.13-2.29-5.8c-2.34-1.97-1.25-3.93,1.41-4.12c4.67-0.34,9.39-0.18,14.08-0.11
		c2.03,0.03,2.67,1.8,3.67,3.22c7.97,11.24,16.03,22.42,24.05,33.63c0.36,0.51,0.63,1.09,0.86,1.49c2.11-1.04,1.49-2.46,1.5-3.56
		c0.06-7.52,0.05-15.04,0.03-22.56c-0.01-3.07,0.45-6.09-2.69-8.45c-1.85-1.39-0.59-3.5,1.5-3.6c5.78-0.27,11.59-0.4,17.36-0.04
		c2.83,0.18,3.44,2.46,1.01,4.11c-2.57,1.74-2.62,4.02-2.62,6.55c0.01,17.71,0.06,35.41-0.06,53.12c-0.02,2.36,1.45,6.17-2.46,6.5
		c-3.87,0.32-8.25,2.06-11.44-2.71c-8.72-13.01-17.79-25.77-26.74-38.62C21.55,172.74,20.95,172.25,19.43,170.67z"/>
	<path class="st2" d="M406.32,94.07c2.56-5.1,5.48-8.63,10.32-10.11c4.4-1.35,7.69,0.28,10.21,3.76c2.38,3.29,2.16,9.19-0.19,11.98
		c-1.44,1.72-2.63,1.24-3.82-0.23c-2.57-3.16-4.6-1.8-6.23,0.89c-2.38,3.92-3.61,7.86-0.5,12.19c2.62,3.64,4.05,8.2,8.54,10.31
		c0.92,0.43,1.24,1.39,1.02,2.41c-0.25,1.13-1.2,1.44-2.15,1.45c-4.85,0.05-9.71,0.04-14.56,0.02c-0.97-0.01-1.97-0.38-2.39-1.27
		c-1.93-4.1-4.05-2.79-6.91-0.78c-7.89,5.53-21.46,5.28-29.41-0.21c-6.49-4.48-9.11-14.91-6.49-24.82
		c2.04-7.71,7.35-12.66,13.8-16.47c3.33-1.97,3.45-3.66,1.54-6.62c-2.46-3.81-4.59-7.84-6.78-11.81c-2.61-4.71-0.58-8.58,4.83-8.69
		c9.86-0.2,19.74-0.06,29.6-0.14c2.36-0.02,3.93,0.8,4.5,3.17c0.7,2.89,1.45,5.77,2.1,8.67c0.29,1.28,0.15,2.52-1.19,3.26
		c-1.09,0.6-2.09,0.38-3.05-0.35c-3.84-2.93-8.35-2.04-12.67-2.22c-3.2-0.13-3.38,1.4-2.07,3.79
		C398.2,79.22,402.02,86.21,406.32,94.07z M387.69,116.19c0.53-0.09,1.69-0.07,2.67-0.48c6.15-2.52,8.78-4.67,4.43-10.94
		c-1.42-2.05-2.61-4.26-3.86-6.42c-3.53-6.16-6.4-6.24-10.39-0.15c-1.56,2.39-2.46,5.09-2.58,7.93
		C377.71,112.31,381.34,116.21,387.69,116.19z"/>
	<path class="st2" d="M162.04,144.13c7.82-0.23,15.63-0.65,23.34,1.46c8.1,2.22,13.32,7.12,14.43,15.44
		c1.21,9.03-0.49,17.4-9.03,22.51c-3.55,2.13-4.58,4.21-2.63,7.92c2.25,4.29,4.13,8.79,6.37,13.09c1.37,2.62,2.82,5.29,5.94,6.36
		c1.16,0.4,1.84,1.28,1.56,2.54c-0.3,1.35-1.49,1.49-2.6,1.49c-5.01,0.02-10.03-0.01-15.04-0.01c-2.29,0-3.17-1.66-4.07-3.36
		c-3.17-5.96-5.95-12.12-7.91-18.56c-1.22-4.01-4.07-3.7-7.08-3.54c-3.62,0.2-2.99,2.98-3.04,5.23c-0.08,3.6-0.02,7.21,0,10.81
		c0.01,1.92,0.17,3.78,1.87,5.08c1.03,0.79,2.04,1.64,1.35,3.11c-0.66,1.4-2.07,1.26-3.29,1.26c-5.33,0.04-10.65,0.04-15.98,0
		c-1.23-0.01-2.64,0.09-3.19-1.39c-0.45-1.24,0.34-2.09,1.25-2.76c1.75-1.27,1.93-3.11,1.93-5.04c0-17.24,0-34.47,0.01-51.71
		c0-2.09-0.45-3.82-2.09-5.46c-2.38-2.38-1.62-4.22,1.93-4.41C151.38,143.93,156.71,144.13,162.04,144.13z M162.3,166.56
		c0,2.03-0.03,4.06,0.01,6.09c0.03,1.49,0.37,3.02,2.13,3.13c4.97,0.32,10.02,1.02,14.75-1.25c3.45-1.65,5-4.75,5.08-8.37
		c0.07-3.04-0.84-5.9-3.9-7.47c-2.75-1.41-5.72-1.42-8.69-1.46C162.25,157.13,162.25,157.13,162.3,166.56z"/>
	<path class="st2" d="M145.44,55.95c7.67-0.22,15.32-0.56,22.9,1.38c8.27,2.11,13.66,6.93,15.28,15.33
		c1.79,9.23-1.95,18.68-9.48,22.85c-4.13,2.28-4.35,4.39-2.29,8.1c2.12,3.83,3.71,7.95,5.58,11.91c1.41,3,2.88,5.96,6.37,7.15
		c1.13,0.38,1.89,1.21,1.61,2.51c-0.29,1.33-1.43,1.59-2.55,1.6c-5.02,0.04-10.03,0.04-15.05,0.02c-2.7-0.01-3.71-1.99-4.59-4.07
		c-2.5-5.92-5.23-11.76-7.38-17.8c-1.47-4.12-4.45-3.83-7.59-3.57c-3.69,0.31-2.64,3.27-2.73,5.42c-0.14,3.29-0.02,6.58-0.04,9.87
		c-0.02,2.24,0.06,4.42,2.14,5.9c0.94,0.67,1.62,1.58,1.24,2.8c-0.4,1.28-1.58,1.43-2.69,1.44c-5.64,0.03-11.29,0.16-16.93-0.05
		c-2.92-0.11-3.71-1.93-1.52-3.97c1.99-1.85,2.26-3.95,2.26-6.36c-0.02-16.77-0.01-33.55-0.01-50.32c0-2.05,0.09-4.11-2.01-5.41
		c-1.16-0.72-1.86-1.82-1.25-3.19c0.59-1.32,1.95-1.51,3.21-1.52C135.09,55.93,140.26,55.95,145.44,55.95z M145.52,78.48
		c0,2.03-0.01,4.07,0,6.1c0.01,1.51,0.36,2.99,2.15,3.09c4.82,0.27,9.73,0.95,14.35-1.01c4.1-1.73,6.32-5.94,5.67-10.32
		c-0.66-4.44-3.82-6.21-7.77-6.94c-1.52-0.28-3.11-0.28-4.67-0.29C143.84,69.04,145.65,68.72,145.52,78.48z"/>
	<path class="st2" d="M225.98,144.14c7.97-0.26,15.95-0.7,23.79,1.55c7.87,2.26,12.97,7.07,14.08,15.21
		c1.21,8.84-0.24,17.3-8.5,22.31c-4.55,2.76-4.81,5.39-2.67,9.44c2.56,4.84,5,9.75,7.54,14.61c0.9,1.73,2.33,2.91,4.17,3.61
		c1.11,0.42,1.92,1.15,1.71,2.47c-0.23,1.4-1.37,1.61-2.49,1.61c-5.01,0.03-10.02,0-15.04,0.01c-2.5,0.01-3.54-1.76-4.37-3.66
		c-2.62-6.03-5.52-11.97-7.63-18.18c-1.45-4.27-4.39-3.81-7.48-3.6c-3.32,0.22-2.72,2.88-2.76,4.97c-0.08,3.6-0.02,7.21-0.01,10.81
		c0,2.07,0.12,4.1,2.05,5.46c0.95,0.66,1.68,1.51,1.28,2.76c-0.41,1.27-1.58,1.43-2.69,1.44c-5.8,0.03-11.59,0.03-17.39,0
		c-1.12-0.01-2.26-0.24-2.56-1.57c-0.24-1.04,0.31-1.89,1.16-2.37c2.86-1.62,2.67-4.32,2.66-7.01c-0.01-16.45-0.01-32.9-0.01-49.34
		c0-2.36,0.22-4.76-2.52-6.02c-1.05-0.48-1.71-1.44-1.31-2.7c0.46-1.45,1.77-1.74,3.03-1.76
		C215.33,144.11,220.65,144.14,225.98,144.14z M226.35,166.58c0,2.03-0.01,4.07,0,6.1c0.01,1.76,0.63,3.16,2.61,3.22
		c4.36,0.13,8.78,0.73,13.01-0.82c4.33-1.59,6.96-5.98,6.39-10.35c-0.56-4.29-3.34-6.73-8.44-7.31c-1.39-0.16-2.81-0.16-4.22-0.17
		C226.31,157.13,226.31,157.13,226.35,166.58z"/>
	<path class="st2" d="M221.78,116.25c-3.44,0-6.89,0.12-10.33-0.03c-4.09-0.18-6.26,2.59-4.07,6c2.52,3.91,0.86,4.62-2.67,4.62
		c-4.7,0.01-9.4,0.02-14.1-0.02c-1.37-0.01-2.99,0.2-3.53-1.58c-0.44-1.46,0.56-2.32,1.65-3.06c1.83-1.24,2.41-3.22,3.07-5.14
		c5.96-17.33,11.91-34.66,17.85-51.99c0.55-1.61,1.18-3.14-0.01-4.89c-1.65-2.44-0.55-3.98,2.16-4.05
		c6.11-0.14,12.22-0.1,18.33-0.03c2.74,0.03,3.69,1.53,2.55,4.04c-0.94,2.08-0.32,3.92,0.37,5.88c5.84,16.54,11.62,33.1,17.42,49.66
		c0.93,2.66,1.64,5.42,4.17,7.17c0.97,0.67,1.5,1.64,0.93,2.84c-0.47,1-1.46,1.12-2.4,1.12c-5.8,0.02-11.59,0.06-17.39-0.01
		c-2.34-0.03-3.44-0.94-2.5-3.59c2.15-6.01,1.2-7.22-4.93-6.83c-0.47,0.03-0.94,0.05-1.41,0.06c-1.72,0.01-3.45,0-5.17,0
		C221.78,116.36,221.78,116.31,221.78,116.25z M220.72,76.19c-0.34,0.02-0.67,0.03-1.01,0.05c-1.53,5.2-3.09,10.39-4.58,15.6
		c-3.44,12.03-3.43,12.04,9.4,11.19c0.62-0.04,1.25-0.07,1.87-0.15c1.62-0.2,2.14-1.19,1.69-2.66
		C225.66,92.21,223.19,84.2,220.72,76.19z"/>
	<path class="st2" d="M127.8,214.94c-2.98,0-5.96,0.08-8.93-0.03c-2.46-0.09-3.26-1.17-2.26-3.71c2.19-5.58,1.04-6.97-4.63-6.77
		c-5.63,0.2-11.28,0.14-16.92-0.04c-4.59-0.15-6.4,1.95-4.39,6.14c1.56,3.25,0.7,4.39-2.55,4.43c-4.86,0.06-9.72,0.04-14.58,0
		c-1.23-0.01-2.64,0.08-3.19-1.41c-0.54-1.44,0.38-2.36,1.41-3.16c1.82-1.41,2.71-3.4,3.41-5.51c5.68-16.94,11.37-33.87,17.03-50.81
		c0.59-1.75,1.44-3.51,0.47-5.44c-1.61-3.2,0.03-4.41,3-4.45c5.64-0.08,11.29-0.05,16.93,0c2.7,0.03,4.32,1.15,3.22,4.12
		c-0.97,2.62,0.01,4.95,0.84,7.29c5.78,16.4,11.6,32.79,17.4,49.19c0.79,2.22,1.51,4.48,3.55,5.95c0.95,0.69,1.67,1.54,1.31,2.77
		c-0.47,1.56-1.9,1.44-3.13,1.46c-2.66,0.05-5.33,0.01-7.99,0.01C127.8,214.97,127.8,214.96,127.8,214.94z M103.09,163.77
		c-1.79,6.07-3.12,10.81-4.58,15.51c-4.07,13.1-4.06,13.12,9.7,11.89c0.47-0.04,0.93-0.07,1.4-0.12c1.59-0.18,2.24-1.1,1.74-2.59
		C108.77,180.71,107.05,172.65,103.09,163.77z"/>
	<path class="st2" d="M29.53,54.76c5.31,0.37,10.61,0.79,15.93,1.08c1.89,0.1,2.98,1.03,3.24,2.76c0.62,4.02,1.15,8.06,1.61,12.1
		c0.16,1.43-0.08,2.85-1.72,3.5c-1.56,0.62-2.62-0.08-3.76-1.11c-5.7-5.11-12.43-6.21-19.75-4.83c-2.66,0.5-4.91,1.69-5.38,4.53
		c-0.52,3.12,1.54,5.03,4.1,6.17c6.01,2.67,12.29,4.8,18.13,7.79c12.51,6.4,16.38,20.7,8.75,32.32c-5.02,7.64-13.34,8.69-21.54,9.53
		c-5.83,0.59-11.55-0.7-17.32-1.2c-8-0.7-7.99-0.68-9.02-8.7c-0.36-2.8-0.77-5.59-1.19-8.37c-0.22-1.44-0.47-2.9,1.2-3.64
		c1.52-0.68,2.69-0.06,3.67,1.19c6.75,8.58,15.98,8.08,25.33,6.69c3.11-0.46,5.48-2.29,5.97-5.79c0.49-3.47-1.28-5.67-4.07-7.27
		c-5.06-2.9-10.57-4.75-15.97-6.87C6.71,90.29,1.56,81.02,3.88,69.99c1.77-8.44,9.52-14.04,20.95-15.08
		c1.55-0.14,3.13-0.02,4.7-0.02C29.53,54.84,29.53,54.8,29.53,54.76z"/>
	<path class="st2" d="M89.1,55.9c8.3,0,16.6,0.13,24.9-0.07c3.21-0.08,5.07,0.89,5.67,4.12c0.55,2.92,1.27,5.81,1.84,8.73
		c0.25,1.27,0.17,2.54-1.15,3.3c-1.14,0.65-2,0.06-2.98-0.56c-5.91-3.78-12.47-1.81-18.77-1.9c-1.76-0.03-2.05,1.7-2.05,3.17
		c-0.01,15.19,0,30.38,0,45.58c0,1.86,0.69,3.34,2.31,4.35c0.97,0.61,1.8,1.4,1.49,2.66c-0.33,1.3-1.49,1.51-2.61,1.52
		c-6.11,0.02-12.22,0.13-18.32-0.06c-2.67-0.08-3.46-1.88-1.37-3.66c2.12-1.82,2.23-3.96,2.23-6.33c0-14.1-0.09-28.19,0.06-42.29
		c0.04-3.81-1.21-5.57-5.15-5.2c-5.34,0.5-10.9-1.17-15.87,2.61c-2.02,1.54-3.69-0.24-3.39-2.59c0.47-3.56,1.3-7.08,2.11-10.58
		c0.65-2.83,2.93-2.77,5.22-2.76c8.61,0.04,17.23,0.02,25.84,0.02C89.1,55.92,89.1,55.91,89.1,55.9z"/>
	<path class="st2" d="M319.59,55.9c8.3,0,16.61,0.17,24.9-0.08c3.52-0.1,5.26,1.16,5.85,4.5c0.49,2.77,1.2,5.51,1.74,8.27
		c0.25,1.27,0.2,2.54-1.07,3.34c-1.11,0.69-2,0.17-2.99-0.48c-5.89-3.86-12.46-1.86-18.76-1.96c-2.04-0.03-2.15,1.96-2.15,3.56
		c-0.01,15.04,0.01,30.07,0.01,45.11c0,2.07,0.87,3.58,2.63,4.66c0.84,0.51,1.42,1.3,1.19,2.35c-0.29,1.34-1.41,1.59-2.54,1.6
		c-6.11,0.03-12.22,0.12-18.32-0.04c-2.62-0.07-3.59-1.78-1.5-3.62c2.07-1.84,2.28-3.93,2.27-6.32c-0.01-14.1-0.12-28.19,0.07-42.29
		c0.06-4.22-1.58-5.65-5.56-5.28c-5.18,0.49-10.59-1.11-15.4,2.58c-2.05,1.57-3.76-0.13-3.45-2.48c0.48-3.71,1.35-7.39,2.26-11.02
		c0.65-2.6,2.91-2.4,4.98-2.4c8.61,0.02,17.23,0.01,25.84,0.01C319.59,55.92,319.59,55.91,319.59,55.9z"/>
	<path class="st2" d="M263.54,91.86c0-7.53,0.05-15.06-0.02-22.58c-0.03-3.47,0.93-7.15-3.22-9.52c-1.71-0.98-0.79-3.2,1.11-3.41
		c6.39-0.71,12.84-0.63,19.24-0.06c2.3,0.2,2.82,2.26,1.3,3.8c-2.32,2.33-2.14,5.07-2.14,7.88c-0.01,15.68-0.01,31.36,0.01,47.05
		c0,2.94-0.35,5.87,2.17,8.33c1.41,1.37,0.75,3.25-1.36,3.32c-6.26,0.19-12.55,0.3-18.8,0.01c-2.83-0.14-3.02-2.27-0.9-3.75
		c2.49-1.74,2.64-4.01,2.63-6.59C263.51,108.17,263.53,100.01,263.54,91.86z"/>
</g>
<g>
	<path class="st3" d="M688.33-9.89c3.81,0,7.46,0.62,10.96,1.86c3.49,1.24,6.02,2.47,7.58,3.68l2.43,1.82L703.23,7.7l-1.99-0.87
		c-0.06-0.46-0.09-1.1-0.09-1.91c0-1.39-1.3-2.86-3.9-4.42c-2.6-1.56-5.58-2.34-8.92-2.34c-3.99,0-7.47,0.75-10.44,2.25
		c-2.98,1.5-4.46,3.64-4.46,6.41c0,1.96,0.71,3.68,2.12,5.16c1.41,1.47,3.26,2.72,5.54,3.73c2.28,1.01,4.79,1.98,7.54,2.9
		c2.74,0.92,5.49,1.99,8.23,3.21c2.74,1.21,5.26,2.61,7.54,4.2c2.28,1.59,4.13,3.68,5.55,6.28c1.42,2.6,2.12,5.58,2.12,8.93
		c0,3.12-0.72,5.94-2.17,8.45c-1.45,2.51-3.22,4.52-5.33,6.02c-2.11,1.5-4.43,2.76-6.98,3.77c-2.54,1.01-4.82,1.7-6.85,2.08
		c-2.02,0.38-3.76,0.56-5.2,0.56c-3.35,0-6.49-0.22-9.4-0.65c-2.92-0.43-5.26-0.98-7.02-1.65c-1.76-0.66-3.26-1.31-4.51-1.95
		c-1.24-0.63-2.12-1.18-2.64-1.65l-0.78-0.61l6.07-10.83l2.08,1.04c0.06,0.46,0.09,1.07,0.09,1.82c0,1.27,1.43,2.66,4.29,4.16
		c2.86,1.5,6.34,2.25,10.44,2.25c5.14,0,9.33-1.16,12.57-3.47c3.23-2.31,4.85-4.77,4.85-7.37c0-2.02-0.71-3.8-2.12-5.33
		c-1.42-1.53-3.24-2.82-5.46-3.86c-2.22-1.04-4.69-2.05-7.41-3.03c-2.72-0.98-5.45-2.09-8.19-3.34c-2.74-1.24-5.23-2.67-7.45-4.29
		c-2.22-1.62-4.04-3.75-5.46-6.41c-1.42-2.66-2.12-5.72-2.12-9.19c0-3.18,0.87-5.98,2.6-8.41c1.73-2.43,3.96-4.27,6.67-5.55
		c2.71-1.27,5.4-2.21,8.06-2.82C683.36-9.58,685.9-9.89,688.33-9.89z"/>
	<path class="st3" d="M713.89-9.19h49.56l-1.91,11.18h-1.56c0-0.98-0.62-1.92-1.86-2.82c-1.24-0.9-2.47-1.34-3.68-1.34h-10.22v56.5
		c0,1.44,0.42,2.73,1.26,3.86c0.84,1.13,1.78,1.69,2.82,1.69v1.56h-19.24v-1.56c1.04,0,1.98-0.58,2.82-1.73
		c0.84-1.15,1.26-2.43,1.26-3.81v-56.5h-10.31c-1.21,0-2.43,0.45-3.64,1.34c-1.21,0.9-1.82,1.83-1.82,2.82h-1.65L713.89-9.19z"/>
	<path class="st3" d="M799.15,30.84c0.46,0.75,1.57,2.69,3.34,5.81c1.76,3.12,3.25,5.63,4.46,7.54s2.73,4.13,4.55,6.67
		c1.82,2.54,3.61,4.55,5.37,6.02c1.76,1.47,3.48,2.41,5.16,2.82v1.73h-16.46l-16.03-29.98h-7.28v22.7c0,1.44,0.42,2.74,1.26,3.9
		c0.84,1.16,1.78,1.73,2.82,1.73v1.65h-19.32v-1.65c1.04,0,1.99-0.59,2.86-1.78c0.87-1.18,1.3-2.47,1.3-3.86V-1.91
		c0-1.1-0.45-2.32-1.34-3.68c-0.9-1.36-1.83-2.04-2.82-2.04v-1.56h23.57c1.96,0,4.01,0.23,6.15,0.69c2.14,0.46,4.35,1.21,6.63,2.25
		c2.28,1.04,4.32,2.33,6.11,3.86c1.79,1.53,3.26,3.48,4.42,5.85c1.16,2.37,1.73,4.97,1.73,7.8c0,3.06-0.68,5.91-2.04,8.54
		c-1.36,2.63-2.98,4.71-4.85,6.24c-1.88,1.53-3.68,2.72-5.42,3.55C801.58,30.42,800.19,30.84,799.15,30.84z M782.26,23.91h7.63
		c1.39,0,2.8-0.17,4.25-0.52c1.44-0.35,2.93-0.94,4.46-1.78c1.53-0.84,2.79-2.12,3.77-3.86c0.98-1.73,1.47-3.78,1.47-6.15
		c0-2.37-0.51-4.43-1.52-6.2c-1.01-1.76-2.3-3.09-3.86-3.99c-1.56-0.9-2.89-1.53-3.99-1.91c-1.1-0.38-2.17-0.65-3.21-0.82
		c-1.68-0.29-4.68-0.49-9.01-0.61V23.91z"/>
	<path class="st3" d="M879.39,54.15c0.35,1.39,1.2,2.69,2.56,3.9c1.36,1.21,2.58,1.82,3.68,1.82v1.56h-19.41v-1.56
		c0.87,0,1.59-0.39,2.17-1.17c0.58-0.78,0.87-1.75,0.87-2.9c0-0.58-0.09-1.13-0.26-1.65l-0.35-0.87c-0.17-0.52-0.49-1.54-0.95-3.08
		c-0.46-1.53-1.07-3.65-1.82-6.37h-20.71c-1.04,3.7-2.02,7.14-2.95,10.31c-0.17,0.52-0.26,1.07-0.26,1.65c0,1.16,0.29,2.12,0.87,2.9
		c0.58,0.78,1.3,1.17,2.17,1.17v1.56h-19.41v-1.56c1.1,0,2.33-0.61,3.68-1.82c1.36-1.21,2.21-2.51,2.56-3.9l15.6-56.24
		c0.58-2.31,0.87-3.52,0.87-3.64c0-1.27-0.72-1.91-2.17-1.91v-1.56h15.6c0.23,0.81,3.18,11.38,8.84,31.71
		C876.22,42.86,879.16,53.4,879.39,54.15z M847.68,35.26h15.86c-0.64-2.37-1.96-7.35-3.99-14.95c-2.02-7.6-3.35-12.55-3.99-14.86
		c-0.69,2.48-2.05,7.6-4.07,15.34C849.47,28.53,848.2,33.35,847.68,35.26z"/>
	<path class="st3" d="M889.19-9.19h19.32v1.56c-0.98,0-1.91,0.64-2.77,1.91c-0.87,1.27-1.3,2.51-1.3,3.73v56.15
		c0,1.44,0.42,2.74,1.26,3.9c0.84,1.16,1.78,1.73,2.82,1.73v1.65h-19.32v-1.65c1.04,0,1.99-0.59,2.86-1.78
		c0.87-1.18,1.3-2.47,1.3-3.86V-2c0-1.1-0.45-2.31-1.34-3.64c-0.9-1.33-1.83-1.99-2.82-1.99V-9.19z"/>
	<path class="st3" d="M912.15-9.19h49.57l-1.91,11.18h-1.56c0-0.98-0.62-1.92-1.86-2.82c-1.24-0.9-2.47-1.34-3.68-1.34h-10.23v56.5
		c0,1.44,0.42,2.73,1.26,3.86c0.84,1.13,1.78,1.69,2.82,1.69v1.56h-19.24v-1.56c1.04,0,1.98-0.58,2.82-1.73
		c0.84-1.15,1.26-2.43,1.26-3.81v-56.5h-10.31c-1.21,0-2.43,0.45-3.64,1.34c-1.21,0.9-1.82,1.83-1.82,2.82h-1.65L912.15-9.19z"/>
	<path class="st3" d="M1054.52,48.17c0.17,0.29,0.42,0.71,0.74,1.26c0.32,0.55,0.97,1.49,1.95,2.82c0.98,1.33,1.95,2.51,2.9,3.55
		c0.95,1.04,2.09,1.98,3.42,2.82c1.33,0.84,2.57,1.26,3.73,1.26v1.56h-14.9l-3.9-6.33c-4.45,4.56-9.88,6.85-16.29,6.85
		c-6.7,0-12.3-2.21-16.81-6.63c-4.51-4.42-6.76-9.81-6.76-16.16c0-5.31,1.46-9.65,4.38-13c2.92-3.35,6.34-5.86,10.27-7.54
		c-2.54-5.08-3.81-9.39-3.81-12.91c0-4.27,1.54-7.91,4.64-10.92c3.09-3,6.77-4.51,11.05-4.51c4.97,0,8.98,1.43,12.04,4.29
		c3.06,2.86,4.59,6.57,4.59,11.13c0,2.31-0.36,4.42-1.08,6.33c-0.72,1.91-1.56,3.42-2.51,4.55s-2.18,2.15-3.68,3.08
		c-1.5,0.92-2.76,1.59-3.77,1.99c-1.01,0.41-2.24,0.81-3.68,1.21l12.83,18.8c1.91-1.73,2.86-3.03,2.86-3.9
		c0-1.39-0.49-2.08-1.47-2.08v-1.47h15.51v1.47c-1.85,0-3.78,1.04-5.81,3.12c-2.02,2.08-3.61,4.16-4.77,6.24L1054.52,48.17z
		 M1032.25,52.68c2.19,0,4.04-0.33,5.55-1c1.5-0.66,3.29-1.86,5.37-3.6l-14.9-21.49c-5.89,2.48-8.84,6.56-8.84,12.22
		c0,3.81,1.26,7.08,3.77,9.79C1025.71,51.32,1028.72,52.68,1032.25,52.68z M1035.11-1.83c-1.91,0-3.52,0.81-4.85,2.43
		c-1.33,1.62-1.99,3.32-1.99,5.11c0.06,3.12,1.56,6.47,4.51,10.05c2.77-0.35,5.2-1.28,7.28-2.82c2.08-1.53,3.12-3.94,3.12-7.24
		c0-2.02-0.81-3.78-2.43-5.29C1039.12-1.08,1037.24-1.83,1035.11-1.83z"/>
	<path class="st3" d="M723.81,160.63c0,1.44,0.43,2.76,1.3,3.94c0.87,1.18,1.82,1.78,2.86,1.78v1.56h-16.64v-1.56
		c1.04,0,2.01-0.61,2.9-1.82c0.89-1.21,1.34-2.51,1.34-3.9v-5.72l-33.01-40.03v45.75c0,1.44,0.43,2.76,1.3,3.94
		c0.87,1.18,1.82,1.78,2.86,1.78v1.56h-16.64v-1.56c1.04,0,2.01-0.61,2.9-1.82c0.89-1.21,1.34-2.51,1.34-3.9v-55.11
		c0-1.44-0.59-2.92-1.78-4.42c-1.18-1.5-2.64-2.25-4.38-2.25v-1.56h14.47l32.93,40.12v-32.93c0-1.1-0.45-2.31-1.34-3.64
		c-0.9-1.33-1.83-1.99-2.82-1.99v-1.56h16.55v1.56c-0.98,0-1.91,0.64-2.77,1.91c-0.87,1.27-1.3,2.51-1.3,3.73
		c0,0.75-0.01,10.05-0.04,27.9C723.82,150.23,723.81,159.64,723.81,160.63z"/>
	<path class="st3" d="M785.33,160.63c0.35,1.39,1.2,2.69,2.56,3.9c1.36,1.21,2.58,1.82,3.68,1.82v1.56h-19.41v-1.56
		c0.87,0,1.59-0.39,2.17-1.17c0.58-0.78,0.87-1.75,0.87-2.9c0-0.58-0.09-1.13-0.26-1.65l-0.35-0.87c-0.17-0.52-0.49-1.54-0.95-3.08
		c-0.46-1.53-1.07-3.65-1.82-6.37h-20.71c-1.04,3.7-2.02,7.13-2.95,10.31c-0.17,0.52-0.26,1.07-0.26,1.65c0,1.16,0.29,2.12,0.87,2.9
		c0.58,0.78,1.3,1.17,2.17,1.17v1.56h-19.41v-1.56c1.1,0,2.32-0.61,3.68-1.82c1.36-1.21,2.21-2.51,2.56-3.9l15.6-56.24
		c0.58-2.31,0.87-3.52,0.87-3.64c0-1.27-0.72-1.91-2.17-1.91v-1.56h15.6c0.23,0.81,3.18,11.38,8.84,31.71
		C782.16,149.33,785.1,159.88,785.33,160.63z M753.62,141.74h15.86c-0.64-2.37-1.96-7.35-3.99-14.95
		c-2.02-7.6-3.35-12.55-3.99-14.86c-0.69,2.48-2.05,7.6-4.07,15.34C755.41,135.01,754.14,139.83,753.62,141.74z"/>
	<path class="st3" d="M827.27,137.32c0.46,0.75,1.57,2.69,3.34,5.81c1.76,3.12,3.25,5.63,4.46,7.54c1.21,1.91,2.73,4.13,4.55,6.67
		c1.82,2.54,3.61,4.55,5.37,6.02c1.76,1.47,3.48,2.41,5.16,2.82v1.73h-16.46l-16.03-29.98h-7.28v22.7c0,1.44,0.42,2.74,1.26,3.9
		c0.84,1.16,1.78,1.73,2.82,1.73v1.65h-19.32v-1.65c1.04,0,1.99-0.59,2.86-1.78c0.87-1.18,1.3-2.47,1.3-3.86v-56.06
		c0-1.1-0.45-2.32-1.34-3.68c-0.9-1.36-1.83-2.04-2.82-2.04v-1.56h23.57c1.96,0,4.01,0.23,6.15,0.69c2.14,0.46,4.35,1.21,6.63,2.25
		c2.28,1.04,4.32,2.33,6.11,3.86c1.79,1.53,3.26,3.48,4.42,5.85c1.16,2.37,1.73,4.97,1.73,7.8c0,3.06-0.68,5.91-2.04,8.54
		c-1.36,2.63-2.98,4.71-4.85,6.24c-1.88,1.53-3.68,2.72-5.42,3.55C829.7,136.9,828.31,137.32,827.27,137.32z M810.37,130.38H818
		c1.39,0,2.8-0.17,4.25-0.52c1.44-0.35,2.93-0.94,4.46-1.78c1.53-0.84,2.79-2.12,3.77-3.86c0.98-1.73,1.47-3.78,1.47-6.15
		c0-2.37-0.51-4.43-1.52-6.2c-1.01-1.76-2.3-3.09-3.86-3.99c-1.56-0.9-2.89-1.53-3.99-1.91c-1.1-0.38-2.17-0.65-3.21-0.82
		c-1.68-0.29-4.68-0.49-9.01-0.61V130.38z"/>
	<path class="st3" d="M885.85,137.32c0.46,0.75,1.57,2.69,3.34,5.81c1.76,3.12,3.25,5.63,4.46,7.54c1.21,1.91,2.73,4.13,4.55,6.67
		c1.82,2.54,3.61,4.55,5.37,6.02c1.76,1.47,3.48,2.41,5.16,2.82v1.73h-16.46l-16.03-29.98h-7.28v22.7c0,1.44,0.42,2.74,1.26,3.9
		c0.84,1.16,1.78,1.73,2.82,1.73v1.65H853.7v-1.65c1.04,0,1.99-0.59,2.86-1.78c0.87-1.18,1.3-2.47,1.3-3.86v-56.06
		c0-1.1-0.45-2.32-1.34-3.68c-0.9-1.36-1.83-2.04-2.82-2.04v-1.56h23.57c1.96,0,4.01,0.23,6.15,0.69c2.14,0.46,4.35,1.21,6.63,2.25
		c2.28,1.04,4.32,2.33,6.11,3.86c1.79,1.53,3.26,3.48,4.42,5.85c1.16,2.37,1.73,4.97,1.73,7.8c0,3.06-0.68,5.91-2.04,8.54
		c-1.36,2.63-2.98,4.71-4.85,6.24c-1.88,1.53-3.68,2.72-5.42,3.55C888.27,136.9,886.89,137.32,885.85,137.32z M868.95,130.38h7.63
		c1.39,0,2.8-0.17,4.25-0.52c1.44-0.35,2.93-0.94,4.46-1.78c1.53-0.84,2.79-2.12,3.77-3.86c0.98-1.73,1.47-3.78,1.47-6.15
		c0-2.37-0.51-4.43-1.52-6.2c-1.01-1.76-2.29-3.09-3.86-3.99c-1.56-0.9-2.89-1.53-3.99-1.91c-1.1-0.38-2.17-0.65-3.21-0.82
		c-1.68-0.29-4.68-0.49-9.01-0.61V130.38z"/>
	<path class="st3" d="M918.56,107.38c6.85-7.02,15.03-10.53,24.57-10.53c9.53,0,17.71,3.51,24.52,10.53
		c6.82,7.02,10.23,15.41,10.23,25.17c0,9.76-3.41,18.15-10.23,25.17s-14.99,10.53-24.52,10.53c-9.53,0-17.72-3.51-24.57-10.53
		s-10.27-15.41-10.27-25.17C908.29,122.79,911.71,114.4,918.56,107.38z M926.66,153.52c4.45,5.32,9.94,7.97,16.46,7.97
		c6.53,0,12-2.7,16.42-8.1c4.42-5.4,6.63-12.43,6.63-21.1c0-9.3-2.17-16.42-6.5-21.36c-4.33-4.94-9.85-7.41-16.55-7.41
		s-12.23,2.51-16.59,7.54c-4.36,5.03-6.54,12.19-6.54,21.49C919.99,141.22,922.21,148.21,926.66,153.52z"/>
	<path class="st3" d="M1016.43,98.5l15.42,43.76c7.57-25.48,11.35-38.65,11.35-39.51c0-1.04-0.33-1.94-1-2.69
		c-0.66-0.75-1.49-1.13-2.47-1.13v-1.65h20.54v1.65c-1.27,0-2.7,0.58-4.29,1.73c-1.59,1.16-2.59,2.4-2.99,3.73
		c-0.35,0.98-3.44,11.47-9.27,31.45c-5.83,19.99-8.96,30.67-9.36,32.06h-4.94l-13-41.77l-12.65,41.77h-4.94
		c-4.51-15.77-10.69-36.91-18.54-63.43c-0.41-1.39-1.4-2.66-2.99-3.81c-1.59-1.16-3.02-1.73-4.29-1.73v-1.65h20.45v1.65
		c-1.04,0-1.88,0.38-2.51,1.13c-0.64,0.75-0.95,1.68-0.95,2.77c0,0.4,0.94,3.89,2.82,10.44c1.88,6.56,3.77,13.04,5.67,19.45
		l2.86,9.53L1016.43,98.5z"/>
</g>
<g>
	<path class="st1" d="M305.39-147.41c-2.99,0-5.41,3.63-7.28,10.88c-2.93,11.04-5.01,17.79-6.24,20.24
		c-3.57,7.25-8.93,10.88-16.08,10.88c-3.2,0-6.03-0.8-8.48-2.4c-2.77-1.76-4.16-4.05-4.16-6.88c0-2.61,1-4.87,3-6.76
		c2-1.89,4.33-2.84,7-2.84c1.81,0,3.28,0.91,4.4,2.72l-2.48,3.44l-0.4-0.24c0.27-0.43,0.4-0.91,0.4-1.44c0-0.8-0.28-1.57-0.84-2.32
		c-0.56-0.75-1.16-1.12-1.8-1.12c-1.44,0-2.6,0.79-3.48,2.36c-0.88,1.57-1.32,3.29-1.32,5.16c0,2.35,0.91,4.41,2.72,6.2
		c1.81,1.79,3.76,2.68,5.84,2.68c4.85,0,8.61-3.04,11.28-9.12c1.92-6.08,3.84-12.16,5.76-18.24c2.45-7.15,5.71-11.57,9.76-13.28
		c0.37-0.16,1.17-0.29,2.4-0.4V-147.41z M331.71-160.77c0,3.63-1.81,6.53-5.44,8.72c-3.25,1.97-7.09,2.96-11.52,2.96
		c-3.25,0-7.6-0.75-13.04-2.24c-5.44-1.49-9.81-2.24-13.12-2.24c-3.57,0-6.8,1.04-9.68,3.12c-2.99,2.24-4.48,4.83-4.48,7.76
		c0,1.87,0.6,3.48,1.8,4.84s2.71,2.01,4.52,1.96c1.44-0.05,2.99-0.85,4.64-2.4l0.4,0.48l-3.68,5.2c-2.88,0.16-5.23-0.88-7.04-3.12
		c-1.65-2.03-2.48-4.53-2.48-7.52c0-3.57,1.95-6.69,5.84-9.36c3.68-2.51,7.76-3.76,12.24-3.76c3.68,0,8.64,0.57,14.88,1.72
		c6.24,1.15,11.07,1.72,14.48,1.72c2.77,0,5.17-0.72,7.2-2.16c2.24-1.55,3.36-3.55,3.36-6c0-1.33-0.49-2.49-1.48-3.48
		c-0.99-0.99-2.15-1.48-3.48-1.48c-1.28,0-2.4,0.31-3.36,0.92c-0.96,0.61-1.44,1.45-1.44,2.52c0,1.23,0.27,2.16,0.8,2.8l-0.64,0.16
		l-2.56-3.36c1.17-2.77,3.6-4.16,7.28-4.16c1.71,0,3.13,0.63,4.28,1.88C331.14-164.04,331.71-162.53,331.71-160.77z"/>
	<path class="st1" d="M340.83-155.09l-1.52,2.56c-0.43,0.75-0.85,1.12-1.28,1.12c-0.69,0-1.51-0.4-2.44-1.2
		c-0.93-0.8-1.69-1.2-2.28-1.2c-0.91,0-2.32,2.61-4.24,7.84c-1.92,5.23-3.65,11.2-5.2,17.92c5.01-6.88,9.28-10.32,12.8-10.32
		c1.01,0,1.52,0.8,1.52,2.4c0,0.37-0.85,3.81-2.56,10.32c-1.71,6.51-2.56,10.88-2.56,13.12c0,2.45,0.43,3.68,1.28,3.68
		c0.53,0,1.87-1.17,4-3.52l0.72,0.57l-4.64,4.86c-0.85,0.92-1.76,1.38-2.72,1.38c-1.87,0-2.8-2.01-2.8-6.02
		c0-2.19,0.8-6.47,2.4-12.84c1.6-6.36,2.4-9.47,2.4-9.31c0-0.48-0.24-0.72-0.72-0.72c-1.6,0-4.88,3.21-9.84,9.63
		c-1.6,7.38-2.4,13.56-2.4,18.53c-0.8,0.05-2.4,0.29-4.8,0.72c0-5.5,1.23-12.47,3.68-20.91c2.19-7.53,4.76-14.37,7.72-20.51
		s5.16-9.21,6.6-9.21c0.69,0,1.52,0.37,2.48,1.12c0.96,0.75,1.76,1.12,2.4,1.12c0.48,0,0.96-0.43,1.44-1.28L340.83-155.09z"/>
	<path class="st1" d="M359.23-134.37c0,3.68-2.13,7.17-6.4,10.48c-2.67,2.03-5.63,3.71-8.88,5.04c-0.21,1.12-0.32,2.35-0.32,3.68
		c0,4.85,1.07,7.28,3.2,7.28c1.44,0,2.77-0.89,4-2.68c1.23-1.79,1.84-3.67,1.84-5.64c0-0.48-0.03-0.93-0.08-1.36l0.8-0.16l0.72,4.8
		c-0.53,1.44-1.52,2.91-2.96,4.4c-1.87,1.97-3.79,2.96-5.76,2.96c-2.19,0-3.89-0.88-5.12-2.64c-1.12-1.55-1.68-3.47-1.68-5.76
		c0-5.23,2.08-10.67,6.24-16.32c4.05-5.44,7.73-8.16,11.04-8.16C358.11-138.45,359.23-137.09,359.23-134.37z M354.99-134.29
		c0-1.6-0.29-2.4-0.88-2.4c-1.44,0-3.21,1.69-5.32,5.08c-2.11,3.39-3.59,7.05-4.44,11c2.29-0.85,4.56-2.61,6.8-5.28
		C353.71-128.83,354.99-131.63,354.99-134.29z"/>
</g>
<g>
	<path class="st1" d="M313.21,228.68c-0.56,0.53-1.1,1.07-1.68,1.57c-0.39,0.34-0.86,0.6-1.34,0.15c-0.55-0.52-0.11-0.93,0.23-1.27
		c1.29-1.31,2.57-2.64,3.92-3.89c0.97-0.9,2.22-0.68,3.35-0.45c0.87,0.17,0.57,1,0.4,1.54c-0.83,2.6-1.72,5.17-2.58,7.76
		c-0.57,1.72-1.13,3.45-1.74,5.33c0.92-0.19,1.17-0.82,1.63-1.18c1.21-0.93,2.49-1.47,4.04-0.99c2.01,0.61,2.77,2.28,1.9,4.18
		c-1.01,2.21-2.78,3.6-5.02,4.37c-1.08,0.37-1.55,0.66-0.6,1.74c1.21,1.38,1.33,3.28,2.01,4.92c0.93,2.24,3.11,2.6,4.74,0.75
		c0.94-1.07,1.07-2.43,1.49-3.69c0.97-2.96,1.9-5.93,2.86-8.9c0.21-0.64,0.42-1.21-0.63-1.21c-0.49,0-1.12-0.03-1.14-0.7
		c-0.02-0.7,0.47-1.23,1.14-1.21c1.78,0.05,2.21-1.1,2.55-2.5c0.29-1.19,0.78-2.32,1.11-3.5c0.5-1.74,1.93-2.21,3.42-2.53
		c0.99-0.21,0.97,0.55,0.77,1.17c-0.56,1.75-1.18,3.48-1.78,5.21c-0.38,1.1-0.65,2.13,1.12,2.11c0.45,0,0.91,0.18,0.94,0.75
		c0.03,0.48-0.24,1.08-0.66,1.03c-3.48-0.45-3.47,2.41-4.22,4.45c-0.9,2.45-1.73,4.94-2.46,7.45c-0.61,2.12,0.74,3.35,2.88,2.72
		c0.64-0.19,1.26-0.46,1.88-0.7c1.39-0.54,2.01-1.45,2.05-3.05c0.1-4.29,1.72-8.01,4.82-11.02c2.54-2.47,4.86-2.66,7.76-0.65
		c0.62,0.43,0.95,0.39,1.31-0.24c0.42-0.74,1.15-0.79,1.9-0.77c1.16,0.03,1.61,0.49,1.19,1.71c-1.4,4.05-2.73,8.11-4.11,12.17
		c-0.54,1.58,0.06,2.57,1.72,2.74c2.36,0.24,5.82-2.13,6.48-4.4c0.41-1.39,0.87-2.76,1.31-4.14c0.42-1.3,0.85-2.6,1.27-3.9
		c-0.19-0.15-0.38-0.31-0.58-0.46c-0.49,0.66-0.96,1.34-1.49,1.98c-0.31,0.37-0.74,0.55-1.17,0.17c-0.41-0.37-0.32-0.83,0.01-1.19
		c1.39-1.52,2.77-3.07,4.42-4.31c0.66-0.5,1.49-0.38,2.27-0.35c1.11,0.05,1.48,0.62,1.13,1.67c-1.12,3.32-2.23,6.64-3.35,9.96
		c-0.05,0.16-0.15,0.3-0.21,0.45c-0.93,2.38-0.79,3.82,0.42,4.34c1.56,0.67,4.98-0.79,5.48-2.51c2.19-7.48,4.76-14.85,7.28-22.22
		c0.03-0.09-0.01-0.21-0.04-0.57c-0.74,0.67-1.35,1.25-2,1.8c-0.39,0.33-0.84,0.65-1.31,0.13c-0.39-0.43-0.19-0.84,0.14-1.18
		c1.37-1.39,2.71-2.81,4.16-4.12c0.91-0.82,2.15-0.68,3.2-0.37c1.12,0.33,0.57,1.31,0.35,1.99c-1.12,3.38-2.32,6.74-3.46,10.11
		c-1.56,4.64-3.1,9.3-4.61,13.96c-0.29,0.88-0.69,1.87,0.23,2.64c0.92,0.77,1.97,0.64,3,0.24c1.78-0.69,3.5-1.36,3.82-3.69
		c0.14-1.03,0.96-1.88,2.07-2.23c0.63-0.2,1.25-0.14,1.7,0.36c0.52,0.56,0.04,1.02-0.28,1.47c-0.8,1.1-0.92,2.29-0.27,3.46
		c0.66,1.17,1.86,1.36,3.06,1.3c0.95-0.04,1.99-0.23,2.37-1.26c0.4-1.08,0.39-2.21-0.46-3.14c-0.64-0.7-1.34-1.34-1.98-2.04
		c-1.68-1.84-2.7-3.92-2.42-6.52c0.39-3.58,4.02-5.52,7.04-3.73c1.65,0.98,2.12,2.34,1.42,4.14c-0.15,0.38-0.29,0.74-0.75,0.8
		c-0.45,0.06-0.75-0.21-0.95-0.56c-0.29-0.54-0.53-1.11-0.8-1.66c-0.57-1.17-1.49-1.77-2.71-1.15c-1.19,0.6-1.04,1.75-0.61,2.78
		c0.35,0.83,1.05,1.43,1.67,2.07c1.11,1.16,2.41,2.16,3.13,3.67c1.02,2.15,1.01,4.29-0.49,6.14c-1.52,1.87-3.66,2.47-6.03,1.95
		c-1.32-0.29-2.57-0.79-3.56-1.74c-0.48-0.46-0.85-0.49-1.45-0.14c-3.19,1.87-6.44,3.2-9.97,0.71c-0.61-0.43-1.17,0.05-1.72,0.29
		c-2.2,0.94-4.42,1.59-6.78,0.55c-0.25-0.11-0.63-0.16-0.74-0.35c-1.21-2.09-2.41-0.79-3.78-0.16c-2.86,1.31-5.77,1.81-8.37-0.66
		c-0.5-0.48-0.82-0.01-1.16,0.2c-3.21,2.06-4.32,2.07-7.52-0.2c-0.81-0.58-1.24,0.03-1.79,0.27c-2.48,1.13-5.02,2.19-7.67,0.79
		c-1.33-0.7-2.26-0.67-3.62-0.01c-3.33,1.61-7.02-0.12-8.18-3.67c-0.39-1.2-0.88-2.41-0.87-3.73c0-0.61-0.09-1.36-0.84-1.45
		c-0.87-0.1-0.79,0.79-0.97,1.32c-0.71,2.05-1.38,4.11-2.07,6.17c-0.41,1.24-2.49,1.98-3.57,1.26c-0.5-0.34-0.31-0.74-0.16-1.17
		c1.66-4.9,3.33-9.8,4.97-14.7c1.18-3.53,2.3-7.07,3.45-10.6C313.4,228.83,313.31,228.75,313.21,228.68z M337.8,249.23
		c0,0.45-0.02,0.89,0,1.33c0.05,1.12,0.03,2.33,1.42,2.71c1.39,0.38,2.44-0.3,3.11-1.41c1.7-2.84,2.65-5.99,3.41-9.17
		c0.28-1.18-0.19-2.4-1.35-3c-1.19-0.62-2.24-0.12-3.14,0.79C338.84,242.91,337.81,245.87,337.8,249.23z M317.73,240.93
		c-0.02-0.44,0-0.92-0.44-1.19c-0.47-0.29-0.86,0.01-1.22,0.25c-1.49,1-2.32,2.52-3.07,4.08c-0.37,0.77,0.2,0.97,0.86,0.94
		C315.49,244.91,317.74,242.55,317.73,240.93z"/>
	<path class="st1" d="M116.45,254.69c-2.49,0.93-4.49,1.83-6.75,1.23c-2.87-0.77-3.76-2.44-2.82-5.28c0.83-2.53,1.6-5.09,2.38-7.64
		c0.11-0.35,0.14-0.73,0.22-1.18c-0.87,0.17-1.18,0.83-1.67,1.24c-0.41,0.34-0.81,0.68-1.3,0.2c-0.38-0.38-0.32-0.86,0.02-1.2
		c1.44-1.47,2.84-3,4.42-4.32c0.77-0.65,1.94-0.42,2.92-0.18c0.73,0.18,0.67,0.76,0.47,1.35c-1.33,3.96-2.63,7.92-3.99,11.87
		c-0.3,0.87-0.67,1.72,0.03,2.51c0.75,0.85,1.74,0.87,2.78,0.57c2.76-0.81,4.65-2.33,5.33-5.35c0.57-2.54,1.53-5,2.42-7.45
		c0.38-1.05,0.3-1.6-0.93-1.65c-0.65-0.03-1.3-0.17-1.22-1.02c0.08-0.78,0.77-0.98,1.38-0.92c1.59,0.15,2.16-0.66,2.66-2.07
		c1.06-3,2.5-5.85,4.99-7.99c2.77-2.39,6.05-2.98,9.54-2.43c1.45,0.23,2.04,1.45,1.74,2.93c-0.26,1.28-1.19,1.71-2.35,1.65
		c-1.2-0.06-2.03-0.79-2.19-1.95c-0.16-1.2-0.64-1.1-1.54-0.76c-3.08,1.16-4.68,3.65-5.92,6.46c-0.38,0.86-0.62,1.78-0.93,2.68
		c-0.34,0.98-0.09,1.47,1.04,1.45c2.12-0.04,4.24-0.01,6.36-0.01c2.54,0.01,2.73,0.36,1.9,2.7c-1.25,3.51-2.41,7.05-3.55,10.6
		c-0.3,0.92-0.8,1.95,0.18,2.8c0.93,0.8,1.95,0.49,3.01,0.22c1.74-0.45,2.33-1.25,2.36-3.26c0.08-5.11,2.34-9.32,6.52-12.38
		c0.72-0.53,1.55-0.89,2.45-1.01c1.33-0.17,2.48,0.28,3.23,1.35c0.79,1.12,0.73,2.45,0.31,3.7c-0.3,0.87-1.11,1.08-1.94,0.8
		c-0.82-0.28-1.35-0.85-1.04-1.79c0.19-0.57,0.35-1.09-0.27-1.46c-0.58-0.35-1.18-0.28-1.74,0.07c-0.83,0.51-1.44,1.25-1.88,2.09
		c-1.41,2.71-2.23,5.55-1.98,8.66c0.26,3.23,2.43,4.39,5.18,2.69c0.87-0.54,1.54-1.28,2.16-2.07c0.33-0.42,0.74-0.77,1.26-0.33
		c0.49,0.41,0.29,0.92-0.03,1.35c-2.4,3.21-6.5,5.61-10.51,2.6c-0.7-0.53-1.19-0.24-1.81,0.06c-2.08,1.01-4.23,1.8-6.59,1.03
		c-2.27-0.74-3.03-1.98-2.54-4.34c0.66-3.22,1.75-6.32,2.87-9.41c0.87-2.39,0.71-2.66-1.85-2.67c-4.28-0.01-4.2,0.02-5.53,4.08
		c-1.92,5.87-3.61,11.81-5.87,17.56c-0.88,2.24-2.07,4.32-3.89,5.97c-1.5,1.36-3.23,1.97-5.24,1.51c-2.21-0.5-3.32-3.14-2.12-5.03
		c0.5-0.78,1.19-1.24,2.11-0.82c1.02,0.47,0.7,1.21,0.26,1.95c-0.41,0.68-0.52,1.39,0.13,1.98c0.66,0.59,1.41,0.59,2.18,0.18
		c0.66-0.35,1.21-0.87,1.51-1.52C114.31,262.01,115.1,258.49,116.45,254.69z"/>
	<path class="st1" d="M66.52,224.98c2.26-0.07,4.17,0.09,6.06,0.74c5.32,1.81,6.2,6.26,3.7,10.58c-2.52,4.35-6.4,6.77-11.52,6.77
		c-1.53,0-2.27,0.38-2.66,1.95c-0.8,3.16-2.17,6.06-4.69,8.33c-2.91,2.61-8.23,3.55-11.78,1.94c-2.91-1.32-3.78-4.72-1.9-7.42
		c1.94-2.79,6.27-4.07,9.39-2.76c0.59,0.25,1.15,0.54,1.18,1.26c0.04,0.83-0.64,1.11-1.24,1.4c-0.6,0.29-1.12,0.28-1.65-0.27
		c-1.42-1.46-2.95-1.28-4.09,0.4c-1.29,1.9-1.21,3.95,0.21,5.35c1.18,1.17,4.21,1.33,5.79,0.22c2.66-1.87,3.86-4.71,4.72-7.68
		c1.62-5.58,3.19-11.16,7.04-15.73c0.75-0.89,1.59-1.72,2.38-2.58c0.18-0.2,0.43-0.41,0.3-0.72c-0.14-0.32-0.46-0.26-0.73-0.24
		c-4.17,0.39-8.17,1.23-11.39,4.2c-1.93,1.78-2.84,3.96-2.57,6.59c0.08,0.79,0.26,1.59,1.12,1.91c0.93,0.34,1.6-0.14,2.18-0.82
		c0.43-0.49,0.87-1.25,1.6-0.5c0.6,0.62-0.04,1.12-0.43,1.56c-1.65,1.84-3.85,2.18-6.06,0.95c-1.96-1.09-2.87-3.39-2.11-5.6
		c1.29-3.76,4.3-5.88,7.64-7.55C60.08,225.73,63.29,224.63,66.52,224.98z M73.64,231.14c-0.07-0.74-0.18-1.58-0.61-2.31
		c-0.83-1.4-2.49-1.92-3.31-0.9c-2.91,3.62-5.33,7.53-6.38,12.14c-0.24,1.03,0.12,1.27,1.11,1.17
		C69.5,240.73,73.65,236.23,73.64,231.14z"/>
	<path class="st1" d="M200.31,249.83c0.37-4.13,1.8-8.35,5.73-11.36c2.44-1.87,4.3-1.89,6.83-0.08c0.56,0.4,0.92,0.58,1.31-0.14
		c0.29-0.52,0.78-0.75,1.38-0.81c1.66-0.18,2.23,0.4,1.72,1.99c-1.17,3.6-2.42,7.17-3.62,10.76c-0.27,0.79-0.65,1.58-0.53,2.42
		c0.12,0.91,0.86,1.25,1.66,1.4c2,0.38,5.08-1.48,5.73-3.41c0.37-1.12,0.73-2.25,2.01-2.7c0.67-0.24,1.35-0.33,1.86,0.25
		c0.52,0.6,0.1,1.16-0.27,1.65c-0.99,1.31-0.96,2.58,0.17,3.76c0.95,0.99,3.25,1.18,4.38,0.43c1.34-0.89,1.38-2.75,0.01-4.25
		c-1.09-1.19-2.28-2.29-3.16-3.66c-1.95-3.01-1.23-6.95,1.55-8.49c1.77-0.98,4.17-0.58,5.52,0.92c0.87,0.97,0.99,2.73,0.22,3.73
		c-0.58,0.76-1.17,0.56-1.6-0.14c-0.38-0.61-0.59-1.32-0.95-1.95c-0.59-1.04-1.5-1.36-2.55-0.81c-1.01,0.53-1.08,1.48-0.74,2.47
		c0.21,0.59,0.61,1.05,1.04,1.49c0.94,0.95,1.9,1.89,2.76,2.91c2.21,2.62,2.39,6.02,0.48,8.05c-2.07,2.2-5.94,2.52-8.57,0.47
		c-1.21-0.95-1.95-1.01-3.27-0.19c-2.37,1.46-4.99,2.25-7.78,1c-1.93-0.86-2-0.86-3.96-0.02
		C203.54,257.27,200.29,255.01,200.31,249.83z M204.33,249.45c0,0.56-0.02,1.11,0,1.67c0.04,0.97,0.46,1.74,1.37,2.12
		c0.92,0.39,1.76,0.02,2.48-0.55c0.72-0.56,1.18-1.35,1.53-2.16c0.99-2.3,1.79-4.67,2.43-7.09c0.39-1.46,0.17-2.88-1.18-3.69
		c-1.45-0.87-2.59,0.15-3.47,1.16C205.37,243.33,204.31,246.2,204.33,249.45z"/>
	<path class="st1" d="M94.58,249.19c-0.05,1.86-0.24,3.94,1.97,4.66c2.1,0.68,3.55-0.76,4.85-2.2c0.19-0.21,0.33-0.45,0.52-0.65
		c0.35-0.36,0.75-0.52,1.17-0.13c0.41,0.38,0.32,0.79,0,1.19c-2.64,3.36-6.49,5.77-10.59,2.63c-0.79-0.6-1.31-0.09-1.96,0.21
		c-2.32,1.07-4.82,2.02-7.19,0.64c-1.64-0.96-2.71-0.85-4.36-0.01c-3.65,1.85-6.84-0.37-6.95-4.48c-0.13-4.98,1.6-9.17,5.39-12.41
		c2.29-1.95,5.05-2.24,7.11-0.24c0.57,0.55,0.95,0.38,1.35-0.16c0.35-0.47,0.83-0.7,1.42-0.77c1.5-0.16,2.03,0.38,1.57,1.8
		c-1.19,3.71-2.48,7.38-3.69,11.09c-0.33,1.01-1.17,2.11-0.09,3.09c1.08,0.98,2.35,0.75,3.62,0.26c1.43-0.56,1.96-1.18,2.01-3.08
		c0.14-5.09,2.37-9.44,6.6-12.54c0.9-0.66,1.95-1.06,3.13-1c2.3,0.13,3.98,2.84,3.01,4.91c-0.4,0.86-1.15,1.2-2.08,1.01
		c-0.84-0.18-1.17-0.79-1.1-1.62c0.05-0.63,0.47-1.41-0.38-1.77c-0.95-0.4-1.78,0.07-2.38,0.78c-1.73,2.06-2.64,4.49-2.93,7.15
		C94.52,248.07,94.58,248.63,94.58,249.19z M75.85,249.57c0,0.39-0.02,0.78,0,1.17c0.08,1.18,0.4,2.25,1.72,2.56
		c1.23,0.29,2.17-0.24,2.85-1.25c0.31-0.46,0.6-0.94,0.84-1.44c1.04-2.16,1.67-4.48,2.44-6.74c0.56-1.66,0.15-3.51-1.08-4.13
		c-1.57-0.79-2.71,0.15-3.63,1.22C76.88,243.42,76.01,246.38,75.85,249.57z"/>
	<path class="st1" d="M189.31,231.46c-0.02,4.76-2.68,7.44-6.91,6.95c-2.69-0.31-4.25-2.62-3.46-5.19c0.29-0.97,0.98-1.62,1.93-1.94
		c0.63-0.21,1.23-0.01,1.69,0.46c0.38,0.38,0.18,0.79-0.01,1.23c-0.76,1.81-0.56,2.96,0.55,3.49c1.29,0.62,3.18-0.15,3.9-1.65
		c0.92-1.91,0.93-3.9,0.15-5.84c-0.87-2.16-2.98-3-5.25-2.27c-4.29,1.37-7.12,4.5-9.46,8.09c-2.74,4.21-4.12,8.81-3.66,13.93
		c0.45,4.93,4.13,6.35,8.45,4.96c1.24-0.4,2.33-1.29,3.47-1.99c0.53-0.32,1.08-0.8,1.63-0.18c0.63,0.7-0.08,1.14-0.52,1.48
		c-3.71,2.92-7.8,3.99-12.36,2.27c-3.22-1.22-5.39-4.8-4.91-8.48c1.12-8.67,5.37-15.45,12.71-20.22c1.8-1.17,3.85-1.72,6.02-1.76
		C187.3,224.73,189.33,226.97,189.31,231.46z"/>
	<path class="st1" d="M261.52,247.08c0,1.49-0.06,3.36,1.16,5.04c1.75,2.4,4.82,2.43,7.44,1.53c1.32-0.46,2.46-1.29,3.59-2.12
		c0.5-0.37,1.04-0.45,1.47,0.1c0.38,0.49,0.02,0.83-0.32,1.13c-3.2,2.78-8.26,4.55-12.9,2.39c-3.39-1.57-5.03-4.55-4.63-8.01
		c1.11-9.63,5.83-17.03,14.65-21.48c1.83-0.92,3.85-1,5.88-0.69c1.76,0.27,3.09,1.26,3.65,2.84c0.9,2.58,0.97,5.3-0.33,7.79
		c-1.55,2.96-5.71,3.84-8.23,1.87c-1.61-1.26-1.91-3.63-0.68-5.23c0.47-0.61,1.08-0.99,1.84-1.02c1.22-0.04,1.81,0.92,1.15,1.95
		c-0.71,1.09-0.8,2.16,0.18,3c1.02,0.87,2.23,0.62,3.26-0.08c2.5-1.68,2.27-7.42-0.32-9c-1.22-0.74-2.47-0.86-3.84-0.38
		c-3.47,1.19-6.02,3.52-8.12,6.42C263.5,237.19,261.33,241.51,261.52,247.08z"/>
	<path class="st1" d="M199.36,242.92c-0.4,4.6-1.96,8.65-5.74,11.56c-2.49,1.92-4.96,2.1-7.11,0.7c-1.94-1.26-3-4.52-2.26-6.97
		c1.16-3.81,2.52-7.39,5.86-9.81c3.21-2.33,6.91-1.53,8.69,1.75C199.27,241.03,199.36,241.95,199.36,242.92z M187.93,249.49
		c0,0.33-0.04,0.67,0.01,1c0.19,1.4,0.32,3.01,1.91,3.41c1.58,0.39,2.53-0.92,3.27-2.11c1.81-2.93,2.64-6.14,2.37-9.57
		c-0.1-1.21-0.37-2.54-1.77-2.97c-1.36-0.41-2.14,0.65-2.95,1.49c-0.19,0.2-0.35,0.44-0.49,0.67
		C188.73,243.89,187.99,246.59,187.93,249.49z"/>
	<path class="st1" d="M292.07,243.13c-0.37,4.49-2.04,8.39-5.58,11.3c-3.93,3.22-8.53,1.6-9.71-3.3c-0.3-1.23,0.23-2.32,0.47-3.43
		c0.8-3.74,2.53-7.03,5.66-9.33c1.83-1.34,3.94-1.92,6.12-0.75C291.19,238.78,292.3,240.59,292.07,243.13z M288.26,243.89
		c0-0.5,0.03-1-0.01-1.5c-0.1-1.32-0.4-2.65-1.79-3.12c-1.42-0.48-2.34,0.6-3.04,1.58c-2.19,3.06-3.05,6.52-2.68,10.25
		c0.12,1.24,0.52,2.53,1.93,2.84c1.31,0.29,2.21-0.66,2.88-1.63C287.31,249.81,288.17,246.97,288.26,243.89z"/>
	<path class="st1" d="M240.64,256.12c-4.23-0.02-6.03-2.38-4.78-5.62c1.16-2.99,1.95-6.15,3.02-9.19c0.33-0.95,0.69-1.89-0.91-1.97
		c-0.42-0.02-0.73-0.33-0.71-0.79c0.04-0.57,0.43-1.03,0.94-1.01c2.13,0.09,2.49-1.44,2.92-2.97c0.33-1.18,0.71-2.34,1.09-3.5
		c0.33-0.98,2.47-2.28,3.53-2.14c0.99,0.13,0.71,0.83,0.53,1.39c-0.61,1.85-1.24,3.69-1.91,5.52c-0.35,0.96-0.4,1.63,0.94,1.6
		c0.59-0.01,1.35,0,1.28,0.91c-0.06,0.84-0.71,1.13-1.44,1.05c-1.7-0.2-2.31,0.7-2.75,2.19c-0.95,3.2-2.08,6.35-3.12,9.52
		c-0.23,0.72-0.71,1.5,0.04,2.17c0.8,0.71,1.76,0.95,2.8,0.6c1.6-0.53,3.1-1.22,4.33-2.44c0.46-0.45,1.08-1.33,1.8-0.59
		c0.65,0.67-0.04,1.33-0.53,1.86C245.72,254.87,243.19,255.87,240.64,256.12z"/>
	<path class="st1" d="M296.02,249.49c-0.04,1.54-0.01,3.6,2.15,4.39c2.06,0.75,3.42-0.79,4.71-2.13c0.23-0.24,0.41-0.53,0.63-0.78
		c0.28-0.31,0.63-0.51,1.03-0.25c0.47,0.3,0.42,0.72,0.23,1.18c-1.43,3.42-6.87,5.25-10.04,3.33c-1.36-0.83-2.05-2.16-2.34-3.7
		c-0.87-4.67,3.37-12.35,7.79-14.11c1.4-0.56,2.72-0.5,3.93,0.49c1.14,0.94,1.16,2.22,1.02,3.52c-0.12,1.12-0.77,1.78-1.92,1.56
		c-1.08-0.21-1.68-0.88-1.21-2.07c0.19-0.48,0.16-0.89-0.27-1.18c-0.56-0.39-1.17-0.38-1.73-0.02c-0.76,0.49-1.43,1.12-1.85,1.91
		C296.92,243.94,295.98,246.37,296.02,249.49z"/>
	<path class="st1" d="M362.27,228.11c1.14,0,2.55,1.3,2.6,2.4c0.05,1.22-1.16,2.47-2.41,2.49c-1.31,0.02-2.51-1.09-2.53-2.34
		C359.9,229.35,361.04,228.11,362.27,228.11z"/>
	<path class="st1" d="M116.98,230.72c-0.03,1.31-1.11,2.34-2.38,2.27c-1.33-0.07-2.4-1.24-2.35-2.55c0.05-1.23,1.22-2.35,2.4-2.32
		C115.89,228.15,117.01,229.4,116.98,230.72z"/>
</g>

</svg>
